<?xml version="1.0" encoding="UTF-8"?>
<svg xmlns="http://www.w3.org/2000/svg" xmlns:xlink="http://www.w3.org/1999/xlink" width="250pt" height="250pt" viewBox="0 0 250 250" version="1.1">
<g id="surface1">
<rect x="0" y="0" width="250" height="250" style="fill:rgb(100%,100%,100%);fill-opacity:1;stroke:none;"/>
<path style=" stroke:none;fill-rule:evenodd;fill:rgb(52.54902%,33.333333%,23.137255%);fill-opacity:1;" d="M 191.945312 86.527344 C 201.085938 77.386719 194.945312 58.53125 179.277344 58.53125 L 127.246094 58.53125 L 127.246094 70.390625 L 122.523438 72.875 L 122.523438 58.53125 L 70.492188 58.53125 C 54.824219 58.53125 48.683594 77.425781 57.824219 86.566406 C 44.730469 94.726562 47.894531 117.769531 67.078125 117.792969 L 122.523438 117.792969 L 122.523438 106.160156 L 127.246094 103.675781 L 127.246094 117.792969 L 182.691406 117.792969 C 201.875 117.769531 205.035156 94.726562 191.945312 86.566406 Z M 139.550781 84.546875 L 141.550781 83.492188 L 138.640625 77.957031 L 135.28125 79.726562 L 135.28125 73.230469 L 141.550781 69.933594 L 138.988281 65.058594 L 179.277344 65.058594 C 191.226562 64.953125 191.429688 84.652344 179.277344 84.546875 Z M 135.28125 65.058594 L 137.382812 65.058594 L 135.28125 66.167969 Z M 114.488281 111.125 L 112.386719 111.125 L 114.488281 110.019531 Z M 127.246094 77.460938 L 127.246094 83.953125 L 122.523438 86.4375 L 122.523438 79.941406 Z M 114.488281 65.058594 L 114.488281 77.105469 L 107.539062 80.761719 L 109.527344 84.546875 L 70.492188 84.546875 C 58.339844 84.652344 58.539062 64.953125 70.492188 65.058594 Z M 111.140625 92.425781 L 107.539062 94.324219 L 110.449219 99.855469 L 114.488281 97.730469 L 114.488281 103.324219 L 107.539062 106.976562 L 109.738281 111.160156 L 67.882812 111.160156 C 55.726562 111.261719 55.929688 92.324219 67.882812 92.425781 Z M 122.523438 99.09375 L 122.523438 93.5 L 127.246094 91.019531 L 127.246094 96.609375 Z M 135.28125 111.160156 L 135.28125 99.445312 L 141.550781 96.148438 L 139.59375 92.425781 L 181.886719 92.425781 C 193.839844 92.324219 194.042969 111.261719 181.886719 111.160156 Z M 3.675781 160.246094 L 16.242188 160.246094 C 24.851562 160.28125 25.148438 150.410156 19.851562 149.097656 C 24.75 146.625 24.359375 137.984375 15.085938 137.984375 L 3.675781 137.984375 Z M 16.398438 147.6875 L 7.191406 147.675781 L 7.199219 140.992188 L 16.398438 140.992188 C 20.152344 140.941406 20.195312 147.738281 16.398438 147.6875 C 16.398438 147.6875 20.195312 147.738281 16.398438 147.6875 Z M 16.15625 157.25 L 7.195312 157.25 L 7.199219 150.03125 L 16.152344 150.03125 C 21.644531 150.019531 21.691406 157.320312 16.15625 157.25 C 16.15625 157.25 21.691406 157.320312 16.15625 157.25 Z M 35.523438 151.84375 C 35.0625 151.828125 34.722656 151.425781 34.902344 150.964844 L 39.042969 142.011719 C 39.292969 141.558594 40.023438 141.5625 40.222656 142.015625 L 44.386719 150.925781 C 44.480469 151.117188 44.46875 151.347656 44.351562 151.527344 C 44.238281 151.707031 44.035156 151.816406 43.820312 151.808594 Z M 46.6875 154.820312 L 49.402344 160.28125 L 52.867188 160.28125 L 41.453125 137.945312 L 37.988281 137.945312 L 26.574219 160.28125 L 30.039062 160.28125 L 32.75 154.820312 Z M 173.535156 151.84375 C 173.078125 151.828125 172.738281 151.425781 172.914062 150.964844 L 177.058594 142.011719 C 177.308594 141.558594 178.035156 141.5625 178.234375 142.015625 L 182.398438 150.925781 C 182.496094 151.117188 182.480469 151.347656 182.367188 151.527344 C 182.25 151.707031 182.046875 151.816406 181.832031 151.808594 Z M 184.699219 154.820312 L 187.414062 160.28125 L 190.878906 160.28125 L 179.464844 137.945312 L 176 137.945312 L 164.585938 160.28125 L 168.050781 160.28125 L 170.761719 154.820312 Z M 228.984375 151.84375 C 228.523438 151.828125 228.183594 151.425781 228.359375 150.964844 L 232.503906 142.011719 C 232.753906 141.558594 233.480469 141.5625 233.679688 142.015625 L 237.847656 150.925781 C 237.941406 151.117188 237.925781 151.347656 237.8125 151.527344 C 237.695312 151.707031 237.492188 151.816406 237.277344 151.808594 Z M 240.144531 154.820312 L 242.859375 160.28125 L 246.324219 160.28125 L 234.910156 137.945312 L 231.445312 137.945312 L 220.03125 160.28125 L 223.496094 160.28125 L 226.207031 154.820312 Z M 57.835938 137.945312 L 57.835938 160.246094 L 74.070312 160.246094 L 74.070312 157.53125 L 61.113281 157.53125 L 61.113281 137.945312 Z M 156.789062 137.945312 L 156.789062 160.246094 L 160.066406 160.246094 L 160.066406 137.945312 Z M 79.535156 137.984375 L 79.535156 160.246094 L 96.019531 160.246094 L 96.019531 157.269531 L 82.472656 157.269531 L 82.472656 149.996094 L 95.164062 149.996094 L 95.164062 147.625 L 82.507812 147.625 L 82.507812 140.917969 L 95.679688 140.917969 L 95.679688 137.984375 Z M 101.191406 160.246094 L 101.191406 137.945312 L 105.976562 137.945312 L 120.515625 157.269531 L 120.515625 137.945312 L 123.453125 137.945312 L 123.453125 160.246094 L 118.746094 160.246094 L 104.167969 140.957031 L 104.167969 160.246094 Z M 192.921875 148.492188 C 192.921875 140.15625 198.136719 136.5625 205.90625 136.5625 C 215.886719 136.5625 216.265625 142.425781 216.265625 143.066406 L 212.726562 143.066406 C 212.726562 141.410156 210.539062 139.449219 206.058594 139.453125 C 200.628906 139.457031 196.378906 142.136719 196.378906 148.492188 C 196.378906 153.238281 200.042969 157.484375 206.058594 157.484375 C 209.183594 157.484375 211.933594 157.195312 213.367188 156.519531 L 213.367188 150.300781 L 206.097656 150.300781 L 206.097656 147.929688 L 216.226562 147.929688 L 216.226562 158.652344 C 214.117188 159.558594 210.617188 160.492188 206.058594 160.492188 C 197.824219 160.496094 192.921875 155.9375 192.921875 148.492188 C 192.921875 148.492188 192.921875 155.9375 192.921875 148.492188 Z M 132.796875 148.503906 C 132.796875 153.714844 136.746094 156.929688 141.136719 156.929688 C 145.910156 156.929688 147.832031 153.398438 147.804688 153.363281 L 151.347656 153.363281 C 151.308594 153.4375 150.558594 159.953125 141.101562 159.953125 C 134.9375 159.953125 129.484375 156.363281 129.484375 148.503906 C 129.484375 141.648438 133.230469 135.925781 141.101562 135.925781 C 150.21875 135.925781 151.308594 142.4375 151.347656 142.515625 L 147.804688 142.515625 C 147.832031 142.476562 145.910156 138.945312 141.136719 138.945312 C 135.738281 138.945312 132.816406 143.144531 132.796875 148.503906 C 132.796875 148.503906 132.816406 143.144531 132.796875 148.503906 Z M 98.183594 180.578125 L 102.953125 180.578125 C 105.3125 180.578125 106.421875 180.808594 107.371094 181.199219 C 108.644531 181.734375 109.5 182.644531 109.5 183.773438 C 109.5 184.902344 108.644531 185.8125 107.371094 186.347656 C 106.421875 186.738281 105.3125 186.972656 102.953125 186.972656 L 99.894531 186.972656 L 99.894531 191.28125 L 98.183594 191.28125 Z M 99.894531 186.003906 L 102.371094 186.003906 C 104.199219 186.003906 104.824219 186.003906 105.796875 185.726562 C 107.140625 185.335938 107.789062 184.582031 107.789062 183.773438 C 107.789062 182.964844 107.140625 182.210938 105.796875 181.820312 C 104.824219 181.546875 104.199219 181.546875 102.371094 181.546875 L 99.894531 181.546875 Z M 114.957031 180.578125 L 116.878906 180.578125 L 124.238281 191.28125 L 122.363281 191.28125 L 119.886719 187.679688 L 111.925781 187.679688 L 109.425781 191.28125 L 107.640625 191.28125 Z M 112.574219 186.710938 L 119.214844 186.710938 L 115.929688 181.792969 Z M 126.109375 180.578125 L 130.460938 180.578125 C 132.753906 180.578125 133.886719 180.75 134.675781 180.980469 C 136.59375 181.546875 137.730469 182.71875 137.730469 184.035156 C 137.730469 185.585938 135.945312 187.160156 132.636719 187.289062 L 137.472656 191.28125 L 135.320312 191.28125 L 129.511719 186.4375 C 131.6875 186.4375 132.429688 186.421875 133.191406 186.28125 C 135.066406 185.945312 136.015625 184.960938 136.015625 184.007812 C 136.015625 183.167969 135.25 182.300781 134.140625 181.953125 C 133.125 181.621094 132.242188 181.546875 130.808594 181.546875 L 127.820312 181.546875 L 127.820312 191.285156 L 126.109375 191.285156 Z M 138.910156 180.578125 L 140.621094 180.578125 L 140.621094 191.28125 L 138.910156 191.28125 Z M 144.59375 188.289062 C 144.6875 189.632812 146.054688 190.5 148.160156 190.5 C 149.964844 190.5 151.609375 189.632812 151.609375 188.375 C 151.609375 186.722656 148.945312 186.304688 147.789062 186.085938 C 146.238281 185.796875 143.347656 185.394531 143.347656 183.269531 C 143.347656 181.605469 145.453125 180.386719 148.160156 180.386719 C 150.960938 180.386719 152.90625 181.730469 152.90625 183.296875 L 151.195312 183.296875 C 151.195312 182.210938 149.78125 181.359375 148.160156 181.359375 C 146.191406 181.359375 145.058594 182.296875 145.058594 183.222656 C 145.058594 184.527344 146.886719 184.828125 149.132812 185.234375 C 153.34375 185.941406 153.320312 188.011719 153.320312 188.328125 C 153.320312 189.976562 151.191406 191.46875 148.160156 191.46875 C 145.9375 191.46875 142.953125 190.644531 142.882812 188.285156 L 144.59375 188.285156 Z M 144.59375 188.289062 "/>
</g>
</svg>
